<svg width="128" height="128" viewBox="0 0 128 128" fill="none" xmlns="http://www.w3.org/2000/svg">
<rect width="128" height="128" fill="white"/>
<path fill-rule="evenodd" clip-rule="evenodd" d="M64.1691 13.5L16.5 96.0653H111.838L64.1691 13.5ZM64.1691 19.9757L22.1081 92.8275H106.23L64.1691 19.9757Z" fill="black"/>
<path fill-rule="evenodd" clip-rule="evenodd" d="M25.4333 58.8301V62.0679H106.38V58.8301H25.4333Z" fill="black"/>
<path d="M22.0771 60.4494L25.4333 58.8305V62.0684L22.0771 60.4494Z" fill="black"/>
<path d="M33.2703 110.971L33.4473 112.185L33.7066 111.091L35.5279 104.666H36.5524L38.3294 111.091L38.5824 112.204L38.7784 110.965L40.2076 104.666H41.4281L39.1958 113.874H38.0891L36.1919 107.164L36.0465 106.462L35.901 107.164L33.9343 113.874H32.8276L30.6016 104.666H31.8158L33.2703 110.971Z" fill="black"/>
<path d="M42.0858 110.389C42.0858 109.719 42.2165 109.116 42.4779 108.581C42.7435 108.045 43.1103 107.632 43.5783 107.341C44.0505 107.05 44.588 106.905 45.1909 106.905C46.1226 106.905 46.8752 107.227 47.4485 107.872C48.0261 108.517 48.3149 109.375 48.3149 110.446V110.528C48.3149 111.194 48.1863 111.793 47.9291 112.324C47.6762 112.851 47.3115 113.262 46.8351 113.558C46.3629 113.853 45.8191 114 45.2035 114C44.276 114 43.5235 113.678 42.9459 113.033C42.3725 112.388 42.0858 111.534 42.0858 110.471V110.389ZM43.2621 110.528C43.2621 111.287 43.437 111.896 43.787 112.356C44.1411 112.816 44.6133 113.045 45.2035 113.045C45.798 113.045 46.2702 112.813 46.6201 112.35C46.97 111.882 47.145 111.228 47.145 110.389C47.145 109.639 46.9658 109.032 46.6074 108.568C46.2533 108.1 45.7811 107.866 45.1909 107.866C44.6133 107.866 44.1474 108.096 43.7933 108.555C43.4392 109.015 43.2621 109.673 43.2621 110.528Z" fill="black"/>
<path d="M49.4722 110.389C49.4722 109.719 49.6029 109.116 49.8643 108.581C50.1299 108.045 50.4967 107.632 50.9646 107.341C51.4368 107.05 51.9744 106.905 52.5772 106.905C53.509 106.905 54.2615 107.227 54.8349 107.872C55.4125 108.517 55.7013 109.375 55.7013 110.446V110.528C55.7013 111.194 55.5727 111.793 55.3155 112.324C55.0626 112.851 54.6979 113.262 54.2215 113.558C53.7493 113.853 53.2054 114 52.5899 114C51.6624 114 50.9098 113.678 50.3322 113.033C49.7589 112.388 49.4722 111.534 49.4722 110.471V110.389ZM50.6484 110.528C50.6484 111.287 50.8234 111.896 51.1733 112.356C51.5275 112.816 51.9997 113.045 52.5899 113.045C53.1843 113.045 53.6565 112.813 54.0065 112.35C54.3564 111.882 54.5313 111.228 54.5313 110.389C54.5313 109.639 54.3522 109.032 53.9938 108.568C53.6397 108.1 53.1675 107.866 52.5772 107.866C51.9997 107.866 51.5338 108.096 51.1797 108.555C50.8255 109.015 50.6484 109.673 50.6484 110.528Z" fill="black"/>
<path d="M60.4758 108.081C60.2988 108.051 60.1069 108.037 59.9004 108.037C59.1331 108.037 58.6124 108.363 58.3384 109.017V113.874H57.1684V107.031H58.3067L58.3257 107.822C58.7094 107.21 59.2532 106.905 59.9573 106.905C60.1849 106.905 60.3578 106.934 60.4758 106.993V108.081Z" fill="black"/>
<path d="M62.8283 113.874H61.6584V107.031H62.8283V113.874ZM61.5636 105.216C61.5636 105.027 61.6205 104.866 61.7343 104.736C61.8524 104.605 62.0252 104.54 62.2529 104.54C62.4805 104.54 62.6534 104.605 62.7714 104.736C62.8895 104.866 62.9485 105.027 62.9485 105.216C62.9485 105.406 62.8895 105.564 62.7714 105.691C62.6534 105.817 62.4805 105.88 62.2529 105.88C62.0252 105.88 61.8524 105.817 61.7343 105.691C61.6205 105.564 61.5636 105.406 61.5636 105.216Z" fill="black"/>
<path d="M70.8155 109.769C69.7741 109.47 69.0153 109.103 68.5389 108.669C68.0667 108.231 67.8306 107.691 67.8306 107.05C67.8306 106.325 68.1194 105.726 68.697 105.254C69.2788 104.778 70.0334 104.54 70.9609 104.54C71.5933 104.54 72.1562 104.662 72.6494 104.906C73.1469 105.151 73.5306 105.488 73.8004 105.918C74.0744 106.348 74.2114 106.818 74.2114 107.328H72.9909C72.9909 106.772 72.8138 106.336 72.4597 106.019C72.1056 105.699 71.606 105.539 70.9609 105.539C70.3623 105.539 69.8943 105.672 69.557 105.937C69.224 106.199 69.0574 106.563 69.0574 107.031C69.0574 107.406 69.2155 107.725 69.5317 107.986C69.8521 108.243 70.3939 108.479 71.157 108.694C71.9243 108.909 72.5229 109.148 72.953 109.409C73.3872 109.666 73.7076 109.968 73.9142 110.313C74.125 110.659 74.2304 111.066 74.2304 111.534C74.2304 112.28 73.9395 112.879 73.3577 113.33C72.7759 113.777 71.9981 114 71.0242 114C70.3918 114 69.8015 113.88 69.2535 113.64C68.7054 113.395 68.2817 113.062 67.9824 112.641C67.6872 112.219 67.5397 111.74 67.5397 111.205H68.7602C68.7602 111.762 68.9647 112.202 69.3736 112.527C69.7868 112.847 70.337 113.007 71.0242 113.007C71.665 113.007 72.1561 112.877 72.4976 112.615C72.8391 112.354 73.0099 111.998 73.0099 111.547C73.0099 111.095 72.8518 110.748 72.5356 110.503C72.2194 110.254 71.646 110.01 70.8155 109.769Z" fill="black"/>
<path d="M76.8801 113.874H75.7102V107.031H76.8801V113.874ZM75.6153 105.216C75.6153 105.027 75.6723 104.866 75.7861 104.736C75.9041 104.605 76.077 104.54 76.3047 104.54C76.5323 104.54 76.7052 104.605 76.8232 104.736C76.9413 104.866 77.0003 105.027 77.0003 105.216C77.0003 105.406 76.9413 105.564 76.8232 105.691C76.7052 105.817 76.5323 105.88 76.3047 105.88C76.077 105.88 75.9041 105.817 75.7861 105.691C75.6723 105.564 75.6153 105.406 75.6153 105.216Z" fill="black"/>
<path d="M80.0295 113.874H78.8595V104.16H80.0295V113.874Z" fill="black"/>
<path d="M83.1788 113.874H82.0088V104.16H83.1788V113.874Z" fill="black"/>
<path d="M84.7471 110.389C84.7471 109.719 84.8778 109.116 85.1392 108.581C85.4048 108.045 85.7716 107.632 86.2396 107.341C86.7117 107.05 87.2493 106.905 87.8522 106.905C88.7839 106.905 89.5364 107.227 90.1098 107.872C90.6874 108.517 90.9762 109.375 90.9762 110.446V110.528C90.9762 111.194 90.8476 111.793 90.5904 112.324C90.3375 112.851 89.9728 113.262 89.4964 113.558C89.0242 113.853 88.4803 114 87.8648 114C86.9373 114 86.1848 113.678 85.6072 113.033C85.0338 112.388 84.7471 111.534 84.7471 110.471V110.389ZM85.9234 110.528C85.9234 111.287 86.0983 111.896 86.4482 112.356C86.8024 112.816 87.2746 113.045 87.8648 113.045C88.4593 113.045 88.9314 112.813 89.2814 112.35C89.6313 111.882 89.8063 111.228 89.8063 110.389C89.8063 109.639 89.6271 109.032 89.2687 108.568C88.9146 108.1 88.4424 107.866 87.8522 107.866C87.2746 107.866 86.8087 108.096 86.4546 108.555C86.1004 109.015 85.9234 109.673 85.9234 110.528Z" fill="black"/>
<path d="M94.3532 110.705L93.6196 111.471V113.874H92.4497V104.16H93.6196V110.035L94.2457 109.283L96.3768 107.031H97.7997L95.1373 109.89L98.1096 113.874H96.7373L94.3532 110.705Z" fill="black"/>
</svg>
